<svg width="60" height="60" viewBox="0 0 60 60" fill="none" xmlns="http://www.w3.org/2000/svg">
<rect width="60" height="60" rx="30" fill="#E85958"/>
<path d="M35.9221 13.8483C36.2199 13.9278 36.971 14.2619 38.5276 15.6359C40.0331 16.9641 41.3821 18.8687 42.5376 21.2949C43.5496 23.4216 44.3833 25.8773 45.0149 28.5938C46.1867 33.6356 46.3356 38.2354 45.8823 40.029C45.603 40.853 45.3225 41.4061 45.1182 41.7127C45.0453 41.5579 44.9562 41.3297 44.8594 40.9977C44.6703 40.3499 44.1127 39.5177 42.5322 39.2335C40.3538 38.8424 37.0243 39.6461 34.6155 40.3886C32.0154 41.1902 29.3511 42.282 28.2804 42.9859C27.4565 43.5267 25.3564 44.6247 23.2693 45.5241C20.979 46.5111 19.5474 46.9032 18.8647 46.9592C18.9137 46.8563 18.9724 46.7321 19.0397 46.5936C19.6746 45.2735 20.9953 42.5275 21.0475 40.3713C21.142 36.405 20.5518 32.0609 19.3832 28.1385C18.6539 25.6889 17.394 22.5284 16.2483 21.6871C16.0777 21.5618 15.8407 21.4497 15.4004 21.245C15.0906 21.1014 14.7428 20.9394 14.4319 20.7704C14.6102 20.7398 14.8298 20.7092 15.0993 20.6817C16.0798 20.5799 17.4668 20.5361 19.2213 20.5514C25.0661 20.6023 29.2424 19.4371 31.7164 18.4511C34.4481 17.3613 35.784 16.2439 35.8395 16.1961C36.0873 15.9863 36.1862 15.6613 36.096 15.3588C36.096 15.3558 35.9905 15.0034 35.934 14.5888C35.884 14.216 35.8982 13.9777 35.9232 13.8463L35.9221 13.8483ZM36.0177 13.0213C34.3807 12.7269 35.2459 15.586 35.2459 15.586C35.2459 15.586 30.249 19.8241 19.2278 19.7274C8.20663 19.6306 15.0309 21.8449 15.7015 22.3379C17.0842 23.3524 20.38 31.3806 20.1648 40.3529C20.1105 42.6192 18.4789 45.7105 18.0169 46.7127C17.719 47.3595 17.8908 47.6793 18.3734 47.7659C20.28 48.1081 27.0303 44.8142 28.7848 43.6612C30.5609 42.4939 38.7603 39.3965 42.3648 40.0443C43.2202 40.1981 43.817 40.5627 44.0083 41.2146C44.317 42.2708 44.6529 42.7068 44.9834 42.7659C45.716 42.8972 46.4215 41.1749 46.7324 40.249C47.7596 36.2981 45.9552 21.0535 39.132 15.0329C37.6145 13.6945 36.6373 13.1323 36.0177 13.0213Z" fill="white"/>
<path d="M38.72 17.234C39.495 17.3735 40.132 17.6434 40.6668 18.058C41.418 19.1183 42.1158 20.3558 42.7441 21.737C43.0104 22.8625 43.0289 24.0093 42.7985 25.145C42.5658 26.2919 42.0865 27.3991 41.3734 28.437C40.6451 29.4962 39.6951 30.4516 38.5472 31.2787C37.3482 32.1424 35.9612 32.8442 34.4231 33.3657C31.2066 34.4555 28.1195 34.7825 25.4933 34.3109C23.2943 33.9157 21.4822 32.9695 20.2354 31.569C19.755 29.2141 19.0691 26.9122 18.2886 25.037C18.4212 24.2253 18.7267 23.5001 19.2202 22.8268C19.793 22.0446 20.6376 21.3234 21.7333 20.6828C21.8192 20.6329 22.0181 20.5514 22.3268 20.4648C23.4149 20.3915 24.4911 20.2723 25.5281 20.1083C26.0227 20.1215 26.4912 20.1674 26.9227 20.2448C27.7912 20.4006 28.488 20.6777 28.9945 21.0678C29.1109 21.1574 29.2467 21.2155 29.388 21.2409C29.5457 21.2694 29.712 21.2572 29.8674 21.2022C30.1631 21.0973 30.3761 20.8508 30.4251 20.5585C30.5338 19.9097 31.1479 18.9421 32.2762 18.2209C32.7447 18.0203 33.1991 17.8064 33.6285 17.5844C33.9915 17.4652 34.3742 17.3776 34.7655 17.3216C36.4634 17.0812 37.72 17.0527 38.7222 17.233L38.72 17.234ZM38.8852 16.4222C37.6863 16.2073 36.2764 16.2725 34.6307 16.5057C34.1415 16.575 33.685 16.686 33.2632 16.8286C32.8545 17.0415 32.3817 17.2676 31.8425 17.4968C30.4859 18.3411 29.7044 19.5206 29.5522 20.4291C28.8793 19.9107 28.0108 19.599 27.0869 19.433C26.5553 19.3373 26.0053 19.2904 25.4639 19.2792C24.4487 19.4422 23.353 19.5695 22.1703 19.6459C21.7725 19.7508 21.4594 19.8679 21.2659 19.981C18.7952 21.4253 17.6353 23.1568 17.3842 25.1379C18.1125 26.8419 18.8691 29.1958 19.4104 31.9245C20.7887 33.5643 22.8269 34.6715 25.327 35.1196C28.0086 35.6014 31.2218 35.3264 34.722 34.1398C41.3582 31.8908 44.841 26.5883 43.5855 21.4803C42.9376 20.0452 42.1887 18.6966 41.331 17.5018C40.6386 16.9315 39.8266 16.5892 38.8852 16.4202V16.4222Z" fill="white"/>
<path d="M25.8749 22.0965C26.1303 22.1423 26.3727 22.2238 26.5956 22.3389C26.6086 22.3461 26.6228 22.3522 26.6369 22.3583C26.8325 22.4428 27.4717 23.0183 27.4619 23.6732C27.4478 24.5695 26.2379 25.2418 25.2249 25.6472C22.5476 26.7197 21.6758 28.7547 20.9747 30.3905C20.7127 31.0027 20.4757 31.5547 20.1877 31.9367C20.1159 31.8613 20.0453 31.7839 19.9768 31.7065C19.5942 29.8008 19.0789 27.9369 18.48 26.2868C19.1137 25.5025 19.9496 24.7009 20.9681 23.9004C21.4649 23.5428 22.2225 23.0244 23.0976 22.6231C24.1629 22.1342 25.0977 21.957 25.876 22.0965H25.8749ZM25.9858 21.5557C23.8759 21.1768 21.4986 22.8227 20.5996 23.4715C19.3018 24.4901 18.4213 25.4098 17.8234 26.1941C18.4137 27.7708 18.9909 29.7356 19.4257 31.9448C19.6605 32.2229 19.9159 32.4857 20.1877 32.7322C21.7954 31.5995 21.5551 27.7179 25.4542 26.1544C29.8066 24.4106 27.5076 22.124 26.8782 21.8561C26.5901 21.7074 26.2901 21.6107 25.9847 21.5557H25.9858Z" fill="white"/>
<path d="M39.3592 19.3607C40.5049 19.5664 41.5006 19.8547 42.3213 20.2183C42.5648 20.6787 42.8007 21.1594 43.0235 21.6524C43.2844 22.7402 43.3214 23.8423 43.1344 24.9383C42.8278 24.7682 42.4941 24.5492 42.1322 24.3108C41.1093 23.6376 39.8353 22.7993 38.2222 22.51C37.5178 22.3837 36.7906 22.3715 36.0634 22.4734C35.3688 22.5712 34.7807 22.5783 34.3155 22.4948C33.7502 22.3929 33.3948 22.1688 33.2307 21.8093C33.0078 21.3234 33.1904 20.7092 33.2785 20.5819C33.2872 20.5697 33.2948 20.5575 33.3024 20.5453C33.7198 19.8547 34.5525 19.4157 35.7775 19.2395C36.7982 19.0928 37.8276 19.1621 38.5179 19.2293C38.8059 19.269 39.0885 19.3128 39.3603 19.3617L39.3592 19.3607ZM39.4701 18.8198C39.1907 18.7699 38.8983 18.7231 38.5896 18.6813C37.3917 18.5652 33.9818 18.3004 32.7904 20.2733C32.4991 20.6787 32.0295 22.6445 34.2046 23.0356C34.7036 23.1252 35.3405 23.1324 36.1504 23.0183C36.8602 22.9185 37.5113 22.9439 38.1124 23.0519C40.5571 23.4909 42.1756 25.307 43.5638 25.7388C43.9181 24.3526 43.9366 22.9103 43.5866 21.4844C43.3268 20.9099 43.0518 20.3497 42.7594 19.8068C41.9854 19.4432 40.9223 19.0826 39.4712 18.8219L39.4701 18.8198Z" fill="white"/>
<path d="M36.1764 22.6852C36.1232 22.6761 36.0677 22.6791 36.0134 22.6975C35.8514 22.7514 35.7666 22.9185 35.8253 23.0702C36.3645 24.484 34.5557 25.7348 34.4796 25.7867C32.4589 27.1475 29.4044 26.9417 29.3707 26.9387C29.2 26.9275 29.0402 26.9071 28.8891 26.8796C27.188 26.574 26.6956 25.3681 26.6727 25.31C26.6347 25.2092 26.5423 25.1409 26.4379 25.1226C26.3858 25.1134 26.3292 25.1165 26.276 25.1338C26.114 25.1878 26.0292 25.3548 26.0868 25.5066C26.1129 25.5759 26.7086 27.0833 28.7631 27.452C28.9381 27.4836 29.1239 27.507 29.3207 27.5203C29.3381 27.5213 30.3077 27.5946 31.548 27.4184C32.5893 27.2707 33.822 26.9478 34.8438 26.2593C34.9362 26.1962 37.1058 24.6948 36.4112 22.8737C36.3732 22.7728 36.2808 22.7036 36.1764 22.6852Z" fill="white"/>
<path d="M26.6141 23.5286C26.464 23.5021 26.3075 23.5041 26.1499 23.5388C26.1445 23.5398 26.139 23.5408 26.1336 23.5428C25.5705 23.6936 25.3923 24.1499 25.3683 24.5319C25.3586 24.6836 25.4727 24.8099 25.6205 24.8364C25.6575 24.8435 25.6977 24.8435 25.7368 24.8364C25.8792 24.8109 25.9825 24.6969 25.989 24.5614C25.9977 24.3882 26.0575 24.1713 26.2901 24.1081C26.3597 24.0939 26.4282 24.0918 26.4945 24.1041C26.5978 24.1224 26.6978 24.1733 26.7891 24.2558C26.8315 24.2935 26.8836 24.318 26.938 24.3271C27.0162 24.3414 27.0999 24.3271 27.1695 24.2833C27.3369 24.1794 27.3576 23.9564 27.2119 23.827C27.0336 23.6691 26.8304 23.5683 26.613 23.5286H26.6141Z" fill="white"/>
<path d="M35.7905 21.2501C35.6471 21.2246 35.4873 21.2277 35.3123 21.2715C35.3068 21.2725 35.2992 21.2745 35.2938 21.2766C34.9003 21.3957 34.6253 21.6728 34.5068 22.0558C34.4546 22.2228 34.5687 22.3919 34.7448 22.4235C34.7579 22.4255 34.772 22.4275 34.7861 22.4286C34.9285 22.4357 35.0633 22.3532 35.1025 22.2248C35.1601 22.0354 35.2786 21.905 35.4547 21.8419C35.471 21.8358 35.4883 21.8317 35.5047 21.8286C35.5634 21.8184 35.6177 21.8195 35.6677 21.8286C35.8318 21.8582 35.9514 21.9763 36.0297 22.0863C36.0775 22.1535 36.1503 22.1973 36.2308 22.2116C36.284 22.2208 36.3395 22.2177 36.3938 22.1994H36.396C36.5873 22.1342 36.6601 21.9183 36.546 21.7614C36.3819 21.5343 36.1286 21.3122 35.7884 21.2511L35.7905 21.2501Z" fill="white"/>
<path d="M33.1459 23.6539C33.0644 23.3758 32.7524 23.1874 32.3176 23.1089C31.9154 23.0366 31.4099 23.059 30.8849 23.1945C29.7925 23.4746 29.0337 24.1356 29.1892 24.6694C29.2707 24.9474 29.5827 25.1358 30.0175 25.2143C30.4197 25.2866 30.9251 25.2642 31.4502 25.1287C32.5426 24.8486 33.3013 24.1876 33.1459 23.6539Z" fill="white"/>
</svg>
